<?xml version="1.0" encoding="UTF-8"?>
<svg width="108px" height="32px" viewBox="0 0 108 32" version="1.1" xmlns="http://www.w3.org/2000/svg" xmlns:xlink="http://www.w3.org/1999/xlink">
    <title>编组</title>
    <g id="页面-1" stroke="none" stroke-width="1" fill="none" fill-rule="evenodd">
        <g id="首页01" transform="translate(-360.000000, -16.000000)">
            <g id="logo" transform="translate(360.000000, 16.000000)">
                <g id="编组" transform="translate(0.000000, 0.000000)">
                    <path d="M32.5962721,24.7093661 C33.9904276,24.7093661 35.354812,24.8156933 36.6792453,25.0172837 L36.6792453,25.0172837 L36.6792453,28.0823016 C35.354812,27.8807112 33.9904276,27.774384 32.5962721,27.774384 C27.1865607,27.774384 22.2183271,29.3613224 18.3396226,32 C14.4610142,29.3613224 9.49268456,27.774384 4.08306922,27.774384 C2.6889137,27.774384 1.32443333,27.8807112 0,28.0823016 L0,28.0823016 L0,25.0172837 C1.32443333,24.8156933 2.6889137,24.7093661 4.08306922,24.7093661 C9.49268456,24.7093661 14.4610142,26.2963045 18.3396226,28.9349821 C22.2183271,26.2963045 27.1865607,24.7093661 32.5962721,24.7093661 Z M32.5962721,19.6172302 C33.9904276,19.6172302 35.354812,19.7235574 36.6792453,19.9251478 L36.6792453,19.9251478 L36.6792453,22.9901657 C35.354812,22.7885753 33.9904276,22.6822481 32.5962721,22.6822481 C27.1865607,22.6822481 22.2183271,24.2691865 18.3396226,26.9078641 C14.4610142,24.2691865 9.49268456,22.6822481 4.08306922,22.6822481 C2.6889137,22.6822481 1.32443333,22.7885753 0,22.9901657 L0,22.9901657 L0,19.9251478 C1.32443333,19.7235574 2.6889137,19.6172302 4.08306922,19.6172302 C9.49268456,19.6172302 14.4610142,21.2041686 18.3396226,23.8428462 C22.2183271,21.2041686 27.1865607,19.6172302 32.5962721,19.6172302 Z" id="形状结合" fill="#0063B5"></path>
                    <path d="M18.3396515,22.0646783 C22.2182599,19.4260006 27.1865895,17.8390623 32.5963009,17.8390623 C33.5390869,17.8390623 34.4667953,17.8915696 35.37933,17.9854263 C35.2500654,17.6751646 35.0765283,17.3819678 34.8567017,17.1184938 L33.9142998,15.9888375 C33.9267845,15.7614623 33.9338912,15.5326806 33.9338912,15.302305 C33.9338912,11.2076759 31.9418151,7.56892238 28.8541597,5.25382077 C28.3626471,4.59016643 27.8036212,3.9781755 27.1927358,3.41981698 C26.8817711,4.78125537 26.3411841,7.14820791 25.8815555,9.16101769 C25.1901919,12.1886241 23.368868,16.8085134 23.368868,16.8085134 C23.368868,16.8085134 24.0515883,12.67366 24.5483829,8.90738884 C24.9000669,6.24123866 25.0916589,3.5420839 25.185198,1.91351479 C23.1981158,0.7035036 20.8542597,0.000375051899 18.3396515,0 C15.7645405,0.000375051899 13.3688249,0.738289664 11.3518755,2.00249585 C11.4471433,3.63922234 11.638063,6.28933906 11.9834086,8.90738884 C12.4802992,12.67366 13.1630196,16.8085134 13.1630196,16.8085134 C13.1630196,16.8085134 11.3416957,12.1886241 10.6503321,9.16101769 C10.202708,7.20127775 9.67854315,4.90586637 9.36421712,3.52951966 C8.80048544,4.05806155 8.28409953,4.6340475 7.82514319,5.25382077 C4.73748776,7.56892238 2.74541172,11.2076759 2.74541172,15.302305 C2.74541172,15.5326806 2.75251839,15.7614623 2.76490704,15.9888375 L1.82250516,17.1184938 C1.60277465,17.3819678 1.42923749,17.6751646 1.29997295,17.9854263 C2.21241157,17.8915696 3.14021597,17.8390623 4.08300199,17.8390623 C9.49261734,17.8390623 14.460947,19.4260006 18.3396515,22.0646783" id="Fill-5" fill="#FFAA00"></path>
                    <path d="M73.7272857,3.81935484 L73.7272857,4.50696108 L76.9583929,4.50696108 L76.9583929,6.51348571 L73.7272857,6.51348571 L73.7272857,8.11447339 L74.4479864,8.11447339 L74.9280791,7.08990116 L77.1766447,7.08990116 L76.7184996,8.11447339 L77.5479178,8.11447339 L77.5479178,10.0570184 L72.0026062,10.0570184 L71.6317415,10.8255723 L77.6570437,10.8255723 L77.6570437,12.5118994 L74.9280791,14.6037635 L77.4387919,14.6037635 L77.4387919,16.0979521 L74.2515801,16.0979521 L74.2515801,17.7414598 C74.2515801,18.1973021 74.0986609,18.5885659 73.7930267,18.9155507 C73.4873925,19.2432341 73.1162214,19.4064271 72.6795136,19.4064271 L69.1210287,19.4064271 L69.6668625,17.8696187 L71.1950336,17.8696187 C71.2823139,17.8696187 71.3586715,17.8375789 71.4243103,17.7735993 C71.489643,17.7094201 71.5225135,17.6279733 71.5225135,17.5280613 L71.5225135,16.0979521 L67.5492684,16.0979521 L67.5492684,14.6037635 L71.9372736,14.6037635 L74.2515801,12.5118994 L70.8237605,12.5118994 L70.4527936,13.3229734 L67.5708078,13.3229734 L69.1863614,10.0570184 L67.4616819,10.0570184 L67.4616819,8.11447339 L71.2823139,8.11447339 L71.2823139,6.51348571 L68.0513089,6.51348571 L68.0513089,4.50696108 L71.2823139,4.50696108 L71.2823139,3.81935484 L73.7272857,3.81935484 Z M49.2675945,4.27238245 C49.4536904,4.27238245 49.6398884,4.35512676 49.7583038,4.52061539 C49.893869,4.68620382 49.9445018,4.86806165 49.8768213,5.05031873 C49.3522207,7.05295069 48.7945454,8.74187291 48.0836446,10.727936 L48.0836446,10.727936 L49.5223918,10.727936 C49.742379,10.727936 49.9117334,10.8107802 50.0471966,10.9759694 C50.1655099,11.1248892 50.1995033,11.3237151 50.1487684,11.5221417 C49.7255354,13.1604591 49.2638174,14.4738879 48.7728019,15.9798543 C49.890092,16.9724866 51.2271652,17.7338541 52.8521103,17.7338541 L52.8521103,17.7338541 L63.7230525,17.7338541 L63.7230525,19.3638871 L51.8147506,19.3638871 C50.867019,19.3638871 50.0207573,19.132223 49.2251283,18.6358569 C48.8866236,18.4203624 48.5482209,18.1886983 48.2435054,17.9407648 C48.074151,18.437031 47.9134735,18.8196112 47.7441191,19.2997079 L47.7441191,19.2997079 L45.002088,19.2997079 C45.4083753,18.1576567 45.7891421,17.0965532 46.1616402,15.9213644 C45.67481,15.3307756 44.7942485,14.1816378 44.3175245,13.4525096 L44.3175245,13.4525096 L46.5061677,13.4525096 L46.7079843,13.7126202 C46.9279716,12.9512528 47.0659868,12.8614218 47.2521848,12.0668169 L47.2521848,12.0668169 L45.6611309,12.0668169 C45.4918786,12.0668169 45.3734632,12.0006414 45.2717893,11.8683902 C45.1702174,11.7360393 45.1702174,11.5871195 45.2041087,11.4378004 C45.8546789,9.6778119 46.419602,7.83308283 46.8960198,5.90241547 L46.8960198,5.90241547 L44.6812435,5.90241547 L44.6812435,4.27238245 Z M81.498766,3.85763282 L81.1502572,5.11696333 L86.2208863,5.11696333 L86.2208863,7.17908336 C86.0166198,8.78246653 85.6921003,10.2247528 85.2564133,11.4650192 C84.8236867,12.6979993 84.2764238,13.8096077 83.628712,14.7696015 C84.3429814,15.4111943 85.2086388,15.9490822 86.2023074,16.3687925 L86.2023074,16.3687925 L86.2208863,16.3768773 L86.2208863,19.3451923 L86.1780118,19.3279248 C85.3746246,19.0018383 84.6148264,18.6167629 83.9197484,18.1832785 C83.2331433,17.7557828 82.5909439,17.2551249 82.0104022,16.6952782 C81.415671,17.2557237 80.7668363,17.7563817 80.0814561,18.1832785 C79.3869906,18.6164634 78.6341341,19.0014391 77.8438134,19.3276254 L77.8438134,19.3276254 L77.8006326,19.3454917 L77.8006326,16.3780751 L77.8173741,16.3697906 C78.7709243,15.8939859 79.6098362,15.3270526 80.3113453,14.684262 C79.7315182,13.8102066 79.2355006,12.8204689 78.8369715,11.743096 C78.4351758,10.6566402 78.1348499,9.41607437 77.9444665,8.05463597 L77.9444665,8.05463597 L77.9395665,8.02020076 L80.1513825,8.02020076 L80.1565887,8.0442555 C80.3611615,8.98169168 80.6123859,9.8491595 80.903014,10.6228039 C81.1882318,11.3836722 81.5336781,12.0998248 81.9295531,12.7523969 C82.3923939,12.0290579 82.7991917,11.2016148 83.1392276,10.292126 C83.4812031,9.37644892 83.7710146,8.33830224 84.0009038,7.2055336 L84.0009038,7.2055336 L77.8301344,7.2055336 L78.9150644,3.85763282 L81.498766,3.85763282 Z M100.390616,12.6825484 L100.390616,13.4724621 L106.641418,13.4724621 C107.235537,13.4724621 107.717161,13.9433761 107.717161,14.5243829 L107.717161,14.5243829 L107.717161,17.4501779 C107.717161,18.0310848 107.235537,18.5019988 106.641418,18.5019988 L106.641418,18.5019988 L102.340081,18.5019988 L102.973093,16.9090959 L104.656939,16.9090959 C104.898772,16.9090959 105.094872,16.7172569 105.094872,16.4808018 L105.094872,16.4808018 L105.094872,15.5450624 C105.094872,15.3086073 104.898772,15.1168681 104.656939,15.1168681 L104.656939,15.1168681 L100.390616,15.1168681 L100.390616,19.3425173 L97.4436039,19.3425173 L97.4436039,15.1159698 L93.2233198,15.1159698 L93.2233198,18.5525038 L90.2978469,18.5525038 L90.2978469,13.4724621 L97.4436039,13.4724621 L97.4436039,12.6825484 L100.390616,12.6825484 Z M58.2985042,3.81938478 L58.2985042,4.48193816 L63.4285452,4.48193816 L63.4285452,7.02595149 L63.8651509,7.02595149 L63.8651509,8.66945916 L63.4285452,8.66945916 L63.4285452,9.80073062 C63.4285452,10.2704468 63.2613345,10.6691966 62.926811,10.9961813 C62.5917771,11.3238648 62.1916147,11.4870577 61.7259155,11.4870577 L61.7259155,11.4870577 L58.2985042,11.4870577 L58.2985042,12.4904698 L63.3635188,12.4904698 L63.3635188,14.1339774 L58.2985042,14.1339774 L58.2985042,14.9453508 L63.6037183,14.9453508 L63.6037183,16.5888585 L58.2985042,16.5888585 L58.2985042,17.2931333 L55.5694375,17.2931333 L55.5694375,16.5888585 L50.504525,16.5888585 L50.504525,14.9453508 L55.5694375,14.9453508 L55.5694375,14.1339774 L50.7447245,14.1339774 L50.7447245,12.4904698 L55.5694375,12.4904698 L55.5694375,11.4870577 L50.9192852,11.4870577 L50.9192852,9.84355005 L55.5694375,9.84355005 L55.5694375,8.66945916 L50.4390903,8.66945916 L50.4390903,7.02595149 L55.5694375,7.02595149 L55.5694375,6.10787888 L50.9192852,6.10787888 L50.9192852,4.48583084 L55.5694375,4.48583084 L55.5694375,3.81938478 L58.2985042,3.81938478 Z M96.0141871,3.81938478 L96.0107163,4.57107045 L99.9909029,4.57107045 L99.9909029,6.21467793 L96.0039789,6.21467793 L96.0013247,6.87114277 L99.7987841,6.87114277 L99.7987841,8.51465044 L95.9546731,8.51465044 C95.9368087,8.72884741 95.9142486,8.9291705 95.8839301,9.11432213 L95.8839301,9.11432213 L95.8453431,9.30945498 L99.9909029,9.30945498 L99.9909029,10.9529626 L95.3493254,10.9529626 C95.0730909,11.5111125 94.7166197,11.9701488 94.271337,12.4904698 L94.271337,12.4904698 L91.3062562,12.4904698 C91.7761407,11.9138547 92.1590512,11.4333588 92.4609084,10.9529626 L92.4609084,10.9529626 L89.8173867,10.9529626 L89.8173867,9.30945498 L93.1397553,9.30945498 L93.1957985,9.11432213 C93.2075379,9.04305622 93.2185628,8.82386863 93.2289752,8.51465044 L93.2289752,8.51465044 L89.9922535,8.51465044 L89.9922535,6.87114277 L93.2673581,6.87114277 C93.2712372,6.65395142 93.2749122,6.43356609 93.2782809,6.21467793 L93.2782809,6.21467793 L89.8173867,6.21467793 L89.8173867,4.57107045 L93.300739,4.57107045 C93.3065577,4.07769875 93.3098243,3.81938478 93.3098243,3.81938478 L93.3098243,3.81938478 L96.0141871,3.81938478 Z M107.762659,4.2294632 C107.635771,5.26451571 107.437833,6.36764013 107.274195,7.3524871 L107.274195,7.3524871 L108,7.3524871 L108,9.98573253 C107.989996,10.3586309 107.93038,10.7212486 107.820846,11.0731864 C107.740915,11.35296 107.616885,11.6070819 107.447531,11.8346537 L107.447531,11.8346537 L104.683552,11.8346537 C105.170893,11.3583499 105.596576,10.8425204 105.596576,9.98573253 L105.596576,9.98573253 L105.596576,8.39372796 L104.691412,8.39372796 C104.910379,7.62717027 105.089533,6.84514169 105.22908,6.04734278 L105.22908,6.04734278 L103.418447,6.04734278 L103.418447,12.4905197 L100.492974,12.4905197 L100.492974,4.2294632 Z M60.9399843,8.66945916 L58.2985042,8.66945916 L58.2985042,9.84355005 L60.5906589,9.84355005 C60.8233043,9.84355005 60.9399843,9.72966433 60.9399843,9.50199271 L60.9399843,9.50199271 L60.9399843,8.66945916 Z M60.9399843,6.10787888 L58.2984021,6.10787888 L58.2984021,7.02595149 L60.9399843,7.02595149 L60.9399843,6.10787888 Z" id="形状结合" fill="#000000"></path>
                    <path d="M47.3123112,23.9324212 L47.3123112,27.0707164 C47.3123112,28.4055049 46.6510224,28.8496692 45.6705225,28.8496692 C45.4197064,28.8496692 45.105089,28.8052528 44.9118473,28.7352844 L45.0229128,28.0215274 C45.167155,28.0696369 45.363357,28.1093621 45.5805881,28.1093621 C46.0949805,28.1093621 46.4079646,27.8817903 46.4079646,27.0410722 L46.4079646,23.9324212 L47.3123112,23.9324212 Z M67.3966044,23.9324212 L67.3966044,27.0707164 C67.3966044,28.4055049 66.7349073,28.8496692 65.7548157,28.8496692 C65.5037955,28.8496692 65.189178,28.8052528 64.9959364,28.7352844 L65.1070018,28.0215274 C65.2510399,28.0696369 65.4475482,28.1093621 65.664575,28.1093621 C66.1789675,28.1093621 66.4918495,27.8817903 66.4918495,27.0410722 L66.4918495,23.9324212 L67.3966044,23.9324212 Z M81.1625275,23.8534897 C82.6060725,23.8534897 83.4574384,24.9197835 83.4574384,26.3030807 C83.4574384,27.9233322 82.452847,28.8496892 81.0894366,28.8496892 C79.6919307,28.8496892 78.8065714,27.8057534 78.8065714,26.3889192 C78.8065714,24.9034143 79.766757,23.8534897 81.1625275,23.8534897 Z M106.207436,23.8837827 C106.81605,23.8837827 107.290733,24.0044557 107.52103,24.1115542 L107.320439,24.8231153 C107.050941,24.7067343 106.719174,24.6168035 106.19539,24.6168035 C105.142208,24.6168035 104.397722,25.2274546 104.397722,26.3517392 C104.397722,27.4528674 105.090962,28.1015468 106.115766,28.1015468 C106.443144,28.1015468 106.683547,28.0598253 106.799002,28.0053279 L106.799002,26.7976003 L105.927628,26.7976003 L105.927628,26.103107 L107.676297,26.103107 L107.676297,28.5501029 C107.356678,28.662192 106.741836,28.8190967 106.0831,28.8190967 C105.247965,28.8190967 104.611074,28.6140825 104.144047,28.1745096 C103.702133,27.7625846 103.447336,27.1271802 103.449354,26.3972535 C103.453563,24.8625412 104.570037,23.8837827 106.207436,23.8837827 Z M86.960462,23.8946523 C87.6242007,23.8946523 88.0395734,23.978794 88.3766489,24.2020739 C88.682079,24.386427 88.8871622,24.6974418 88.8871622,25.1119619 C88.8871622,25.556725 88.6034757,25.9625614 88.0637669,26.1549994 L88.0637669,26.173764 C88.5863259,26.3033203 89.0653978,26.7057631 89.0653978,27.3723089 C89.0653978,27.8018008 88.8751165,28.1355728 88.5917362,28.37093 C88.2387358,28.6684701 87.6595212,28.8176894 86.7528267,28.8176894 C86.6092407,28.8176894 86.476088,28.8149843 86.3536566,28.8104075 L86.0188143,28.7918954 L86.0188143,28.7918954 L85.7500285,28.7671536 C85.7108316,28.7627886 85.6744591,28.7583724 85.6409469,28.7540092 L85.6409469,23.9986566 C85.9299417,23.941065 86.4529091,23.8946523 86.960462,23.8946523 Z M50.6128343,23.9324412 L50.6128343,28.7707377 L49.7084877,28.7707377 L49.7084877,23.9324412 L50.6128343,23.9324412 Z M55.4305342,23.9323813 L57.0383295,28.7707776 L56.0678337,28.7707776 L55.6199989,27.4030511 L54.0480344,27.4030511 L53.6259243,28.7707776 L52.6912593,28.7707776 L54.2793528,23.9323813 L55.4305342,23.9323813 Z M60.1670278,23.9324312 L61.4454037,26.0089242 C61.771046,26.5433187 62.0595304,27.1052614 62.287378,27.6306728 L62.3051403,27.6260814 C62.2412368,26.9833907 62.2242912,26.3600635 62.2242912,25.6206547 L62.2242912,23.9324312 L63.0600385,23.9324312 L63.0600385,28.7707277 L62.1232298,28.7707277 L60.8320936,26.6423324 C60.5163532,26.1111319 60.1880567,25.5218407 59.9449989,24.973173 L59.9216221,24.9777644 C59.9397417,25.2920231 59.9517363,25.6088769 59.9592011,25.9465041 L59.9685633,26.6548427 L59.9685633,26.6548427 L59.9696007,28.7707277 L59.1338534,28.7707277 L59.1338534,23.9324312 L60.1670278,23.9324312 Z M70.697005,23.9324412 L70.697005,28.7707377 L69.7925563,28.7707377 L69.7925563,23.9324412 L70.697005,23.9324412 Z M75.5144702,23.9323813 L77.1220613,28.7707776 L76.1517696,28.7707776 L75.7039348,27.4030511 L74.1319704,27.4030511 L73.7097582,28.7707776 L72.7752974,28.7707776 L74.3631866,23.9323813 L75.5144702,23.9323813 Z M93.6313323,23.9323813 L95.2389235,28.7707776 L94.2686318,28.7707776 L93.820797,27.4030511 L92.2488325,27.4030511 L91.8267225,28.7707776 L90.8921595,28.7707776 L92.4801509,23.9323813 L93.6313323,23.9323813 Z M98.3679178,23.9324312 L99.6461916,26.0089242 C99.971936,26.5433187 100.26042,27.1052614 100.488472,27.6306728 L100.506132,27.6260814 C100.442127,26.9833907 100.425079,26.3600635 100.425079,25.6206547 L100.425079,23.9324312 L101.260826,23.9324312 L101.260826,28.7707277 L100.324018,28.7707277 L99.0327794,26.6423324 C98.7172432,26.1111319 98.3888446,25.5218407 98.1457868,24.973173 L98.122512,24.9777644 C98.1345918,25.1872702 98.1439607,25.3979294 98.1510837,25.6151281 L98.1661806,26.2917291 L98.1661806,26.2917291 L98.1705928,27.0398844 L98.1705928,27.0398844 L98.1705928,28.7707277 L97.3347434,28.7707277 L97.3347434,23.9324312 L98.3679178,23.9324312 Z M86.9879221,26.5504553 L86.5380457,26.5504553 L86.5380457,28.1283863 C86.5969471,28.1390163 86.6645511,28.1453544 86.7434351,28.149035 L87.0165051,28.1537386 L87.0165051,28.1537386 C87.5944948,28.1537386 88.1147059,27.9411387 88.1147059,27.3440621 C88.1147059,26.78182 87.6085821,26.5510542 86.9879221,26.5504553 Z M81.1377215,24.5606592 C80.2427665,24.5606592 79.7611425,25.3769233 79.7611425,26.3707534 C79.7611425,27.3581955 80.2713495,28.1425197 81.1353736,28.1425197 C82.0082789,28.1425197 82.5026632,27.3481145 82.5026632,26.3358191 C82.5026632,25.4227371 82.039516,24.5606592 81.1377215,24.5606592 Z M54.8291677,24.6332626 L54.8129367,24.6332626 L54.6617037,25.2398546 C54.6348599,25.3426168 54.6070028,25.4437709 54.5778413,25.5396571 L54.1957474,26.7351079 L55.4706525,26.7351079 L55.0808005,25.5428511 L54.989951,25.2361652 L54.989951,25.2361652 L54.8291677,24.6332626 L54.8291677,24.6332626 Z M74.9132058,24.6332626 L74.8967705,24.6332626 L74.7456434,25.2398546 C74.7188071,25.3426168 74.6909727,25.4437709 74.6618793,25.5396571 L74.2795813,26.7351079 L75.5545885,26.7351079 L75.1645322,25.5428511 L75.0737849,25.2361652 L75.0737849,25.2361652 L74.9132058,24.6332626 L74.9132058,24.6332626 Z M93.0300679,24.6332626 L93.0136327,24.6332626 L92.8625359,25.2398546 C92.8357147,25.3426168 92.8079029,25.4437709 92.7788435,25.5396571 L92.3964435,26.7351079 L93.6714507,26.7351079 L93.2813944,25.5428511 L93.1906471,25.2361652 L93.1906471,25.2361652 L93.0300679,24.6332626 L93.0300679,24.6332626 Z M87.0550922,24.548522 C86.8943739,24.548522 86.7754767,24.5549539 86.6850163,24.5645838 L86.5380457,24.5871493 L86.5380457,24.5871493 L86.5380457,25.9095612 L87.0011928,25.9095612 C87.6283861,25.9095612 87.9765886,25.6206048 87.9765886,25.2116743 C87.9765886,24.7574289 87.6242007,24.548522 87.0550922,24.548522 Z" id="形状" fill="#000000"></path>
                </g>
            </g>
        </g>
    </g>
</svg>